# This file uses centimeters as units for non-parametric coordinates.

mtllib can.mtl
v 16.190994 142.436539 222.837738
v 15.591742 142.436539 222.191437
v 14.822117 142.436539 221.761963
v 13.957432 142.436539 221.591309
v 13.082336 142.436539 221.696243
v 12.282490 142.436539 222.066452
v 11.636205 142.436539 222.665695
v 11.206714 142.436539 223.435318
v 11.036079 142.436539 224.300018
v 11.140996 142.436539 225.175110
v 11.511200 142.436539 225.974945
v 12.110454 142.436539 226.621262
v 12.880086 142.436539 227.050720
v 13.744770 142.436539 227.221375
v 14.619858 142.436539 227.116440
v 15.419704 142.436539 226.746246
v 16.065998 142.436539 226.146988
v 16.495481 142.436539 225.377365
v 16.666115 142.436539 224.512665
v 16.561199 142.436539 223.637589
v 16.756004 143.106110 222.458969
v 16.012051 143.106110 221.656631
v 15.056574 143.106110 221.123413
v 13.983106 143.106110 220.911591
v 12.896698 143.106110 221.041840
v 11.903728 143.106110 221.501450
v 11.101370 143.106110 222.245377
v 10.568188 143.106110 223.200867
v 10.356339 143.106110 224.274338
v 10.486603 143.106110 225.360748
v 10.946191 143.106110 226.353714
v 11.690144 143.106110 227.156067
v 12.645620 143.106110 227.689270
v 13.719090 143.106110 227.901093
v 14.805496 143.106110 227.770844
v 15.798466 143.106110 227.311249
v 16.600824 143.106110 226.567307
v 17.134007 143.106110 225.611832
v 17.345856 143.106110 224.538345
v 17.215599 143.106110 223.451965
v 16.756004 148.184219 222.458969
v 16.012051 148.184219 221.656631
v 15.056574 148.184219 221.123413
v 13.983106 148.184219 220.911591
v 12.896698 148.184219 221.041840
v 11.903728 148.184219 221.501450
v 11.101370 148.184219 222.245377
v 10.568188 148.184219 223.200867
v 10.356339 148.184219 224.274338
v 10.486603 148.184219 225.360748
v 10.946191 148.184219 226.353714
v 11.690144 148.184219 227.156067
v 12.645620 148.184219 227.689270
v 13.719090 148.184219 227.901093
v 14.805496 148.184219 227.770844
v 15.798466 148.184219 227.311249
v 16.600824 148.184219 226.567307
v 17.134007 148.184219 225.611832
v 17.345856 148.184219 224.538345
v 17.215599 148.184219 223.451965
v 16.756004 153.262360 222.458969
v 16.012051 153.262360 221.656631
v 15.056574 153.262360 221.123413
v 13.983106 153.262360 220.911591
v 12.896698 153.262360 221.041840
v 11.903728 153.262360 221.501450
v 11.101370 153.262360 222.245377
v 10.568188 153.262360 223.200867
v 10.356339 153.262360 224.274338
v 10.486603 153.262360 225.360748
v 10.946191 153.262360 226.353714
v 11.690144 153.262360 227.156067
v 12.645620 153.262360 227.689270
v 13.719090 153.262360 227.901093
v 14.805496 153.262360 227.770844
v 15.798466 153.262360 227.311249
v 16.600824 153.262360 226.567307
v 17.134007 153.262360 225.611832
v 17.345856 153.262360 224.538345
v 17.215599 153.262360 223.451965
v 16.756004 158.340515 222.458969
v 16.012051 158.340515 221.656631
v 15.056574 158.340515 221.123413
v 13.983106 158.340515 220.911591
v 12.896698 158.340515 221.041840
v 11.903728 158.340515 221.501450
v 11.101370 158.340515 222.245377
v 10.568188 158.340515 223.200867
v 10.356339 158.340515 224.274338
v 10.486603 158.340515 225.360748
v 10.946191 158.340515 226.353714
v 11.690144 158.340515 227.156067
v 12.645620 158.340515 227.689270
v 13.719090 158.340515 227.901093
v 14.805496 158.340515 227.770844
v 15.798466 158.340515 227.311249
v 16.600824 158.340515 226.567307
v 17.134007 158.340515 225.611832
v 17.345856 158.340515 224.538345
v 17.215599 158.340515 223.451965
v 16.085049 158.537567 222.908768
v 15.512925 158.537567 222.291733
v 14.778141 158.537567 221.881683
v 13.952616 158.537567 221.718796
v 13.117142 158.537567 221.818954
v 12.353514 158.537567 222.172394
v 11.736493 158.537567 222.744507
v 11.326453 158.537567 223.479294
v 11.163549 158.537567 224.304825
v 11.263720 158.537567 225.140305
v 11.617155 158.537567 225.903915
v 12.189269 158.537567 226.520950
v 12.924054 158.537567 226.931000
v 13.749578 158.537567 227.093903
v 14.585052 158.537567 226.993729
v 15.348680 158.537567 226.640289
v 15.965709 158.537567 226.068176
v 16.375740 158.537567 225.333389
v 16.538645 158.537567 224.507858
v 16.438482 158.537567 223.672394
v 13.851097 143.782761 224.406357
v 13.851097 158.027405 224.406357
v 15.251066 159.285065 226.535019
v 15.868103 159.285065 225.962906
v 13.753490 158.774872 224.301071
v 14.361512 158.201309 225.167740
v 14.263913 158.948746 225.062469
v 14.515821 158.958771 224.900177
v 14.263356 158.126892 224.730331
v 15.310595 158.829239 226.599213
v 15.927624 158.829239 226.027100
v 14.361858 158.451477 224.796616
v 13.813011 158.319046 224.365280
v 14.323427 158.492920 225.126663
v 13.751621 158.728699 223.716965
v 13.824493 158.433594 223.812866
v 13.485804 158.398239 224.028427
v 13.426275 158.641129 223.964233
v 13.118426 158.610962 224.475021
v 13.058906 158.763229 224.410828
v 12.958912 158.728699 222.931061
v 13.031776 158.433594 223.026978
v 12.693087 158.398239 223.242538
v 12.633566 158.641129 223.178329
v 12.325717 158.610962 223.689133
v 12.266196 158.763229 223.624939
vt 0.574301 0.132108
vt 0.563205 0.110329
vt 0.545921 0.093046
vt 0.524142 0.081949
vt 0.500000 0.078125
vt 0.475858 0.081949
vt 0.454079 0.093046
vt 0.436796 0.110329
vt 0.425699 0.132108
vt 0.421875 0.156250
vt 0.425699 0.180392
vt 0.436796 0.202171
vt 0.454079 0.219454
vt 0.475858 0.230551
vt 0.500000 0.234375
vt 0.524142 0.230551
vt 0.545921 0.219454
vt 0.563204 0.202171
vt 0.574301 0.180392
vt 0.578125 0.156250
vt 0.648603 0.107966
vt 0.626409 0.064408
vt 0.591842 0.029841
vt 0.548284 0.007647
vt 0.500000 -0.000000
vt 0.451716 0.007647
vt 0.408159 0.029841
vt 0.373591 0.064409
vt 0.351397 0.107966
vt 0.343750 0.156250
vt 0.351397 0.204534
vt 0.373591 0.248091
vt 0.408159 0.282659
vt 0.451716 0.304853
vt 0.500000 0.312500
vt 0.548284 0.304853
vt 0.591841 0.282659
vt 0.626409 0.248091
vt 0.648603 0.204534
vt 0.656250 0.156250
vt 0.375000 0.312500
vt 0.387500 0.312500
vt 0.400000 0.312500
vt 0.412500 0.312500
vt 0.425000 0.312500
vt 0.437500 0.312500
vt 0.450000 0.312500
vt 0.462500 0.312500
vt 0.475000 0.312500
vt 0.487500 0.312500
vt 0.500000 0.312500
vt 0.512500 0.312500
vt 0.525000 0.312500
vt 0.537500 0.312500
vt 0.550000 0.312500
vt 0.562500 0.312500
vt 0.575000 0.312500
vt 0.587500 0.312500
vt 0.600000 0.312500
vt 0.612500 0.312500
vt 0.625000 0.312500
vt 0.375000 0.437813
vt 0.387500 0.437813
vt 0.400000 0.437813
vt 0.412500 0.437813
vt 0.425000 0.437813
vt 0.437500 0.437813
vt 0.450000 0.437813
vt 0.462500 0.437813
vt 0.475000 0.437813
vt 0.487500 0.437813
vt 0.500000 0.437813
vt 0.512500 0.437813
vt 0.525000 0.437813
vt 0.537500 0.437813
vt 0.550000 0.437813
vt 0.562500 0.437813
vt 0.575000 0.437813
vt 0.587500 0.437813
vt 0.600000 0.437813
vt 0.612500 0.437813
vt 0.625000 0.437813
vt 0.375000 0.563127
vt 0.387500 0.563127
vt 0.400000 0.563127
vt 0.412500 0.563127
vt 0.425000 0.563127
vt 0.437500 0.563127
vt 0.450000 0.563127
vt 0.462500 0.563127
vt 0.475000 0.563127
vt 0.487500 0.563127
vt 0.500000 0.563127
vt 0.512500 0.563127
vt 0.525000 0.563127
vt 0.537500 0.563127
vt 0.550000 0.563127
vt 0.562500 0.563127
vt 0.575000 0.563127
vt 0.587500 0.563127
vt 0.600000 0.563127
vt 0.612500 0.563127
vt 0.625000 0.563127
vt 0.375000 0.688440
vt 0.387500 0.688440
vt 0.400000 0.688440
vt 0.412500 0.688440
vt 0.425000 0.688440
vt 0.437500 0.688440
vt 0.450000 0.688440
vt 0.462500 0.688440
vt 0.475000 0.688440
vt 0.487500 0.688440
vt 0.500000 0.688440
vt 0.512500 0.688440
vt 0.525000 0.688440
vt 0.537500 0.688440
vt 0.550000 0.688440
vt 0.562500 0.688440
vt 0.575000 0.688440
vt 0.587500 0.688440
vt 0.600000 0.688440
vt 0.612500 0.688440
vt 0.625000 0.688440
vt 0.648603 0.795466
vt 0.626409 0.751908
vt 0.591842 0.717341
vt 0.548284 0.695147
vt 0.500000 0.687500
vt 0.451716 0.695147
vt 0.408159 0.717341
vt 0.373591 0.751909
vt 0.351397 0.795466
vt 0.343750 0.843750
vt 0.351397 0.892034
vt 0.373591 0.935591
vt 0.408159 0.970159
vt 0.451716 0.992353
vt 0.500000 1.000000
vt 0.548284 0.992353
vt 0.591841 0.970159
vt 0.626409 0.935591
vt 0.648603 0.892034
vt 0.656250 0.843750
vt 0.574301 0.819608
vt 0.563205 0.797829
vt 0.545921 0.780545
vt 0.524142 0.769449
vt 0.500000 0.765625
vt 0.475858 0.769449
vt 0.454079 0.780546
vt 0.436796 0.797829
vt 0.425699 0.819608
vt 0.421875 0.843750
vt 0.425699 0.867892
vt 0.436796 0.889671
vt 0.454079 0.906954
vt 0.475858 0.918051
vt 0.500000 0.921875
vt 0.524142 0.918051
vt 0.545921 0.906954
vt 0.563204 0.889671
vt 0.574301 0.867892
vt 0.578125 0.843750
vt 0.500000 0.150000
vt 0.500000 0.837500
vt 0.524142 0.769449
vt 0.545921 0.780545
vt 0.500000 0.837500
vt 0.508228 0.814306
vt 0.508228 0.814306
vt 0.516555 0.816967
vt 0.508952 0.826396
vt 0.524142 0.769449
vt 0.545921 0.780545
vt 0.511919 0.822718
vt 0.500000 0.837500
vt 0.508228 0.814306
vt 0.516555 0.816967
vt 0.511919 0.822718
vt 0.500000 0.837500
vt 0.500000 0.837500
vt 0.508228 0.814306
vt 0.508228 0.814306
vt 0.516555 0.816967
vt 0.511919 0.822718
vt 0.500000 0.837500
vt 0.500000 0.837500
vt 0.508228 0.814306
vt 0.508228 0.814306
vn 0.075439 -0.995867 -0.050570
vn 0.056127 -0.995867 -0.071406
vn 0.433463 -0.712667 -0.551557
vn 0.582688 -0.712667 -0.390616
vn 0.031315 -0.995867 -0.085255
vn 0.241812 -0.712665 -0.658510
vn 0.003426 -0.995866 -0.090766
vn 0.026481 -0.712664 -0.701006
vn -0.024787 -0.995867 -0.087372
vn -0.191449 -0.712662 -0.674878
vn -0.050572 -0.995867 -0.075438
vn -0.390618 -0.712667 -0.582687
vn -0.071412 -0.995867 -0.056120
vn -0.551557 -0.712666 -0.433465
vn -0.085264 -0.995866 -0.031316
vn -0.658513 -0.712663 -0.241810
vn -0.090759 -0.995867 -0.003440
vn -0.701008 -0.712662 -0.026480
vn -0.087386 -0.995866 0.024784
vn -0.674883 -0.712660 0.191441
vn -0.075442 -0.995867 0.050572
vn -0.582694 -0.712660 0.390619
vn -0.056127 -0.995867 0.071412
vn -0.433467 -0.712663 0.551559
vn -0.031304 -0.995868 0.085252
vn -0.241797 -0.712667 0.658513
vn -0.003421 -0.995866 0.090770
vn -0.026473 -0.712664 0.701005
vn 0.024782 -0.995868 0.087371
vn 0.191442 -0.712663 0.674879
vn 0.050573 -0.995866 0.075448
vn 0.390618 -0.712667 0.582686
vn 0.071417 -0.995866 0.056125
vn 0.551563 -0.712665 0.433460
vn 0.085258 -0.995867 0.031304
vn 0.658514 -0.712664 0.241803
vn 0.090756 -0.995867 0.003423
vn 0.701006 -0.712664 0.026476
vn 0.087384 -0.995866 -0.024793
vn 0.674882 -0.712660 -0.191443
vn 0.830627 0.000000 -0.556830
vn 0.617904 0.000000 -0.786254
vn 0.617903 0.000000 -0.786254
vn 0.830626 0.000000 -0.556831
vn 0.344695 0.000000 -0.938715
vn 0.344699 0.000000 -0.938713
vn 0.037736 0.000000 -0.999288
vn 0.037741 0.000000 -0.999288
vn -0.272903 0.000000 -0.962042
vn -0.272902 0.000000 -0.962042
vn -0.556829 0.000000 -0.830627
vn -0.556828 0.000000 -0.830628
vn -0.786252 0.000000 -0.617906
vn -0.786253 0.000000 -0.617904
vn -0.938714 0.000000 -0.344696
vn -0.938715 0.000000 -0.344695
vn -0.999287 0.000000 -0.037746
vn -0.999287 0.000000 -0.037746
vn -0.962043 0.000000 0.272900
vn -0.962043 0.000000 0.272899
vn -0.830625 0.000000 0.556832
vn -0.830626 0.000000 0.556831
vn -0.617905 0.000000 0.786253
vn -0.617904 0.000000 0.786254
vn -0.344695 0.000000 0.938715
vn -0.344694 0.000000 0.938715
vn -0.037747 0.000000 0.999287
vn -0.037747 0.000000 0.999287
vn 0.272893 0.000000 0.962045
vn 0.272897 0.000000 0.962043
vn 0.556829 0.000000 0.830627
vn 0.556832 0.000000 0.830625
vn 0.786256 0.000000 0.617901
vn 0.786255 0.000000 0.617902
vn 0.938716 0.000000 0.344693
vn 0.938715 0.000000 0.344694
vn 0.999287 0.000000 0.037750
vn 0.999287 0.000000 0.037750
vn 0.962043 0.000000 -0.272899
vn 0.962042 0.000000 -0.272900
vn 0.617905 0.000000 -0.786253
vn 0.830627 0.000000 -0.556830
vn 0.344703 0.000000 -0.938712
vn 0.037741 0.000000 -0.999288
vn -0.272906 0.000000 -0.962041
vn -0.556826 0.000000 -0.830629
vn -0.786254 0.000000 -0.617903
vn -0.938716 0.000000 -0.344693
vn -0.999287 0.000000 -0.037746
vn -0.962043 0.000000 0.272900
vn -0.830627 0.000000 0.556830
vn -0.617905 0.000000 0.786252
vn -0.344692 0.000000 0.938716
vn -0.037741 0.000000 0.999288
vn 0.272896 0.000000 0.962044
vn 0.556830 0.000000 0.830627
vn 0.786254 0.000000 0.617903
vn 0.938715 0.000000 0.344693
vn 0.999287 0.000000 0.037750
vn 0.962042 0.000000 -0.272902
vn 0.617909 0.000000 -0.786250
vn 0.830628 0.000000 -0.556828
vn 0.344703 0.000000 -0.938712
vn 0.037735 0.000000 -0.999288
vn -0.272910 0.000000 -0.962040
vn -0.556825 0.000000 -0.830630
vn -0.786254 0.000000 -0.617904
vn -0.938716 0.000000 -0.344692
vn -0.999287 0.000000 -0.037746
vn -0.962042 0.000000 0.272902
vn -0.830626 0.000000 0.556831
vn -0.617909 0.000000 0.786250
vn -0.344692 0.000000 0.938716
vn -0.037735 0.000000 0.999288
vn 0.272890 0.000000 0.962045
vn 0.556825 0.000000 0.830630
vn 0.786254 0.000000 0.617904
vn 0.938716 0.000000 0.344692
vn 0.999287 0.000000 0.037750
vn 0.962042 0.000000 -0.272902
vn 0.196855 0.971510 -0.131969
vn 0.146441 0.971508 -0.186354
vn 0.146440 0.971508 -0.186354
vn 0.196855 0.971510 -0.131969
vn 0.081691 0.971510 -0.222476
vn 0.081692 0.971510 -0.222476
vn 0.008947 0.971513 -0.236816
vn 0.008946 0.971513 -0.236816
vn -0.064677 0.971513 -0.227992
vn -0.064677 0.971513 -0.227992
vn -0.131966 0.971511 -0.196855
vn -0.131966 0.971511 -0.196855
vn -0.186340 0.971510 -0.146441
vn -0.186340 0.971510 -0.146441
vn -0.222473 0.971510 -0.081694
vn -0.222473 0.971510 -0.081694
vn -0.236822 0.971512 -0.008951
vn -0.236822 0.971512 -0.008951
vn -0.227996 0.971512 0.064669
vn -0.227996 0.971512 0.064669
vn -0.196853 0.971511 0.131970
vn -0.196853 0.971511 0.131970
vn -0.146439 0.971509 0.186348
vn -0.146440 0.971509 0.186348
vn -0.081692 0.971511 0.222472
vn -0.081692 0.971511 0.222472
vn -0.008947 0.971513 0.236819
vn -0.008946 0.971513 0.236819
vn 0.064677 0.971512 0.227993
vn 0.064677 0.971512 0.227993
vn 0.131965 0.971510 0.196858
vn 0.131965 0.971510 0.196858
vn 0.186337 0.971510 0.146446
vn 0.186338 0.971510 0.146445
vn 0.222472 0.971510 0.081694
vn 0.222473 0.971510 0.081693
vn 0.236823 0.971512 0.008946
vn 0.236823 0.971512 0.008947
vn 0.227997 0.971511 -0.064674
vn 0.227997 0.971511 -0.064675
vn 0.000000 -1.000000 -0.000002
vn -0.154796 0.982482 0.103770
vn -0.115157 0.982480 0.146533
vn 0.006873 0.999949 0.007410
vn -0.064239 0.982480 0.174945
vn -0.007032 0.982481 0.186229
vn 0.050856 0.982482 0.179286
vn 0.103774 0.982480 0.154804
vn 0.146534 0.982478 0.115172
vn 0.174945 0.982480 0.064240
vn 0.186232 0.982481 0.007016
vn 0.179292 0.982480 -0.050866
vn 0.154802 0.982480 -0.103772
vn 0.115156 0.982480 -0.146534
vn 0.064236 0.982480 -0.174946
vn 0.007032 0.982481 -0.186230
vn -0.050869 0.982482 -0.179280
vn -0.079242 0.982055 -0.171142
vn -0.079242 0.982055 -0.171142
vn -0.120264 0.981583 -0.148430
vn -0.132681 0.981876 -0.135337
vn -0.124650 0.978291 -0.165560
vn -0.164674 0.982052 -0.091954
vn -0.174934 0.982481 -0.064254
vn -0.164674 0.982052 -0.091954
vn -0.186237 0.982480 -0.007029
vn -0.179292 0.982481 0.050853
vn 0.667709 0.188608 0.720133
vn 0.667709 0.188608 0.720133
vn 0.667701 0.188610 0.720140
vn 0.667701 0.188610 0.720140
vn -0.488752 -0.357169 -0.795960
vn -0.488752 -0.357169 -0.795960
vn -0.488752 -0.357169 -0.795960
vn -0.488752 -0.357169 -0.795960
vn -0.776840 -0.393707 -0.491441
vn -0.776840 -0.393707 -0.491441
vn -0.776840 -0.393707 -0.491441
vn -0.776840 -0.393707 -0.491441
vn -0.827186 -0.028985 0.561180
vn -0.827196 -0.028986 0.561165
vn -0.827195 -0.028986 0.561167
vn -0.827186 -0.028985 0.561180
vn -0.128245 0.982046 -0.138342
vn -0.128245 0.982046 -0.138342
vn 0.621947 -0.028986 -0.782523
vn 0.621949 -0.028980 -0.782521
vn 0.621945 -0.028999 -0.782524
vn 0.621945 -0.028999 -0.782524
vn 0.667722 0.188605 0.720122
vn 0.667722 0.188605 0.720122
vn 0.621949 -0.028969 -0.782522
vn 0.621955 -0.028969 -0.782517
vn 0.621966 -0.028968 -0.782509
vn 0.621966 -0.028968 -0.782509
vn -0.827204 -0.028987 0.561153
vn -0.827207 -0.028987 0.561149
vn -0.827204 -0.028987 0.561153
vn -0.827208 -0.028987 0.561147
vn 0.858471 -0.081925 -0.506277
vn 0.858471 -0.081925 -0.506277
vn 0.858471 -0.081925 -0.506277
vn 0.858471 -0.081925 -0.506277
vn 0.227400 -0.954450 -0.193172
vn -0.139085 -0.978543 0.152020
vn -0.152338 -0.974560 0.164398
vn 0.227400 -0.954450 -0.193172
vn -0.218184 0.972927 -0.076221
vn -0.123762 0.978185 -0.166846
vn -0.322867 -0.889646 0.322935
vn -0.322867 -0.889646 0.322935
vn -0.475651 0.091596 0.874852
vn -0.475651 0.091596 0.874852
vn -0.475651 0.091596 0.874852
vn -0.475651 0.091596 0.874852
vn -0.052896 0.971341 -0.231732
vn 0.702916 -0.056859 -0.708997
vn 0.702916 -0.056859 -0.708997
vn 0.702916 -0.056859 -0.708997
vn 0.702916 -0.056859 -0.708997
vn 0.063316 -0.995947 -0.063875
vn 0.063316 -0.995947 -0.063875
vn 0.063316 -0.995947 -0.063875
vn 0.063316 -0.995947 -0.063875
vn -0.148916 0.977375 0.150208
vn -0.148916 0.977375 0.150208
vn -0.148916 0.977375 0.150208
vn -0.148916 0.977375 0.150208
vn -0.243982 -0.938034 0.246098
vn -0.243982 -0.938034 0.246098
vn -0.243982 -0.938034 0.246098
vn -0.243982 -0.938034 0.246098
vn -0.703831 0.024176 0.709956
vn -0.703831 0.024176 0.709956
vn -0.703831 0.024176 0.709956
vn -0.703831 0.024176 0.709956
vn 0.146046 0.978251 -0.147297
vn 0.146046 0.978251 -0.147297
vn 0.146046 0.978251 -0.147297
vn 0.146046 0.978251 -0.147297
s 1
usemtl initialShadingGroup
f 1/1/1 2/2/2 22/22/3 21/21/4
f 2/2/2 3/3/5 23/23/6 22/22/3
f 3/3/5 4/4/7 24/24/8 23/23/6
f 4/4/7 5/5/9 25/25/10 24/24/8
f 5/5/9 6/6/11 26/26/12 25/25/10
f 6/6/11 7/7/13 27/27/14 26/26/12
f 7/7/13 8/8/15 28/28/16 27/27/14
f 8/8/15 9/9/17 29/29/18 28/28/16
f 9/9/17 10/10/19 30/30/20 29/29/18
f 10/10/19 11/11/21 31/31/22 30/30/20
f 11/11/21 12/12/23 32/32/24 31/31/22
f 12/12/23 13/13/25 33/33/26 32/32/24
f 13/13/25 14/14/27 34/34/28 33/33/26
f 14/14/27 15/15/29 35/35/30 34/34/28
f 15/15/29 16/16/31 36/36/32 35/35/30
f 16/16/31 17/17/33 37/37/34 36/36/32
f 17/17/33 18/18/35 38/38/36 37/37/34
f 18/18/35 19/19/37 39/39/38 38/38/36
f 19/19/37 20/20/39 40/40/40 39/39/38
f 20/20/39 1/1/1 21/21/4 40/40/40
s 2
f 21/41/41 22/42/42 42/63/43 41/62/44
f 22/42/42 23/43/45 43/64/46 42/63/43
f 23/43/45 24/44/47 44/65/48 43/64/46
f 24/44/47 25/45/49 45/66/50 44/65/48
f 25/45/49 26/46/51 46/67/52 45/66/50
f 26/46/51 27/47/53 47/68/54 46/67/52
f 27/47/53 28/48/55 48/69/56 47/68/54
f 28/48/55 29/49/57 49/70/58 48/69/56
f 29/49/57 30/50/59 50/71/60 49/70/58
f 30/50/59 31/51/61 51/72/62 50/71/60
f 31/51/61 32/52/63 52/73/64 51/72/62
f 32/52/63 33/53/65 53/74/66 52/73/64
f 33/53/65 34/54/67 54/75/68 53/74/66
f 34/54/67 35/55/69 55/76/70 54/75/68
f 35/55/69 36/56/71 56/77/72 55/76/70
f 36/56/71 37/57/73 57/78/74 56/77/72
f 37/57/73 38/58/75 58/79/76 57/78/74
f 38/58/75 39/59/77 59/80/78 58/79/76
f 39/59/77 40/60/79 60/81/80 59/80/78
f 40/60/79 21/61/41 41/82/44 60/81/80
f 41/62/44 42/63/43 62/84/81 61/83/82
f 42/63/43 43/64/46 63/85/83 62/84/81
f 43/64/46 44/65/48 64/86/84 63/85/83
f 44/65/48 45/66/50 65/87/85 64/86/84
f 45/66/50 46/67/52 66/88/86 65/87/85
f 46/67/52 47/68/54 67/89/87 66/88/86
f 47/68/54 48/69/56 68/90/88 67/89/87
f 48/69/56 49/70/58 69/91/89 68/90/88
f 49/70/58 50/71/60 70/92/90 69/91/89
f 50/71/60 51/72/62 71/93/91 70/92/90
f 51/72/62 52/73/64 72/94/92 71/93/91
f 52/73/64 53/74/66 73/95/93 72/94/92
f 53/74/66 54/75/68 74/96/94 73/95/93
f 54/75/68 55/76/70 75/97/95 74/96/94
f 55/76/70 56/77/72 76/98/96 75/97/95
f 56/77/72 57/78/74 77/99/97 76/98/96
f 57/78/74 58/79/76 78/100/98 77/99/97
f 58/79/76 59/80/78 79/101/99 78/100/98
f 59/80/78 60/81/80 80/102/100 79/101/99
f 60/81/80 41/82/44 61/103/82 80/102/100
f 61/83/82 62/84/81 82/105/101 81/104/102
f 62/84/81 63/85/83 83/106/103 82/105/101
f 63/85/83 64/86/84 84/107/104 83/106/103
f 64/86/84 65/87/85 85/108/105 84/107/104
f 65/87/85 66/88/86 86/109/106 85/108/105
f 66/88/86 67/89/87 87/110/107 86/109/106
f 67/89/87 68/90/88 88/111/108 87/110/107
f 68/90/88 69/91/89 89/112/109 88/111/108
f 69/91/89 70/92/90 90/113/110 89/112/109
f 70/92/90 71/93/91 91/114/111 90/113/110
f 71/93/91 72/94/92 92/115/112 91/114/111
f 72/94/92 73/95/93 93/116/113 92/115/112
f 73/95/93 74/96/94 94/117/114 93/116/113
f 74/96/94 75/97/95 95/118/115 94/117/114
f 75/97/95 76/98/96 96/119/116 95/118/115
f 76/98/96 77/99/97 97/120/117 96/119/116
f 77/99/97 78/100/98 98/121/118 97/120/117
f 78/100/98 79/101/99 99/122/119 98/121/118
f 79/101/99 80/102/100 100/123/120 99/122/119
f 80/102/100 61/103/82 81/124/102 100/123/120
s 3
f 81/143/121 82/142/122 102/162/123 101/163/124
f 82/142/122 83/141/125 103/161/126 102/162/123
f 83/141/125 84/140/127 104/160/128 103/161/126
f 84/140/127 85/139/129 105/159/130 104/160/128
f 85/139/129 86/138/131 106/158/132 105/159/130
f 86/138/131 87/137/133 107/157/134 106/158/132
f 87/137/133 88/136/135 108/156/136 107/157/134
f 88/136/135 89/135/137 109/155/138 108/156/136
f 89/135/137 90/134/139 110/154/140 109/155/138
f 90/134/139 91/133/141 111/153/142 110/154/140
f 91/133/141 92/132/143 112/152/144 111/153/142
f 92/132/143 93/131/145 113/151/146 112/152/144
f 93/131/145 94/130/147 114/150/148 113/151/146
f 94/130/147 95/129/149 115/149/150 114/150/148
f 95/129/149 96/128/151 116/148/152 115/149/150
f 96/128/151 97/127/153 117/147/154 116/148/152
f 97/127/153 98/126/155 118/146/156 117/147/154
f 98/126/155 99/125/157 119/145/158 118/146/156
f 99/125/157 100/144/159 120/164/160 119/145/158
f 100/144/159 81/143/121 101/163/124 120/164/160
s 1
f 2/2/2 1/1/1 121/165/161
f 3/3/5 2/2/2 121/165/161
f 4/4/7 3/3/5 121/165/161
f 5/5/9 4/4/7 121/165/161
f 6/6/11 5/5/9 121/165/161
f 7/7/13 6/6/11 121/165/161
f 8/8/15 7/7/13 121/165/161
f 9/9/17 8/8/15 121/165/161
f 10/10/19 9/9/17 121/165/161
f 11/11/21 10/10/19 121/165/161
f 12/12/23 11/11/21 121/165/161
f 13/13/25 12/12/23 121/165/161
f 14/14/27 13/13/25 121/165/161
f 15/15/29 14/14/27 121/165/161
f 16/16/31 15/15/29 121/165/161
f 17/17/33 16/16/31 121/165/161
f 18/18/35 17/17/33 121/165/161
f 19/19/37 18/18/35 121/165/161
f 20/20/39 19/19/37 121/165/161
f 1/1/1 20/20/39 121/165/161
s 4
f 101/163/162 102/162/163 122/166/164
f 102/162/163 103/161/165 122/166/164
f 103/161/165 104/160/166 122/166/164
f 104/160/166 105/159/167 122/166/164
f 105/159/167 106/158/168 122/166/164
f 106/158/168 107/157/169 122/166/164
f 107/157/169 108/156/170 122/166/164
f 108/156/170 109/155/171 122/166/164
f 109/155/171 110/154/172 122/166/164
f 110/154/172 111/153/173 122/166/164
f 111/153/173 112/152/174 122/166/164
f 112/152/174 113/151/175 122/166/164
f 113/151/175 114/150/176 122/166/164
f 114/150/176 115/149/177 122/166/164
f 115/149/177 116/148/178 126/170/179 122/166/164
s 5
f 127/171/180 128/172/181 125/169/182
s 4
f 117/147/183 118/146/184 122/166/164 129/173/185
f 118/146/184 119/145/186 122/166/164
f 119/145/186 120/164/187 122/166/164
f 120/164/187 101/163/162 122/166/164
s 7
f 130/174/188 131/175/189 124/168/190 123/167/191
s off
f 141/185/192 142/186/193 143/187/194 144/188/195
f 143/187/196 145/189/197 146/190/198 144/188/199
s 8
f 127/171/200 134/178/201 130/174/202 123/167/203
s 5
f 123/167/204 124/168/205 128/172/181 127/171/180
s 9
f 131/175/206 132/176/207 128/172/208 124/168/209
s 7
f 116/148/210 117/147/211 131/175/189 130/174/188
s 9
f 117/147/212 129/173/213 132/176/207 131/175/206
f 133/177/214 132/176/207 129/173/213 122/166/215
s 8
f 122/166/216 126/170/217 134/178/201 133/177/218
f 130/174/202 134/178/201 126/170/217 116/148/219
s off
f 128/172/220 132/176/221 136/180/222 135/179/223
s 10
f 132/176/224 133/177/225 137/181/226 136/180/227
s 5
f 125/169/182 128/172/181 135/179/228 138/182/229
s 10
f 133/177/225 134/178/230 139/183/231 137/181/226
s off
f 134/178/232 127/171/233 140/184/234 139/183/235
s 5
f 127/171/180 125/169/182 138/182/229 140/184/236
s off
f 135/179/237 136/180/238 142/186/239 141/185/240
f 136/180/241 137/181/242 143/187/243 142/186/244
f 138/182/245 135/179/246 141/185/247 144/188/248
f 137/181/249 139/183/250 145/189/251 143/187/252
f 139/183/253 140/184/254 146/190/255 145/189/256
f 140/184/257 138/182/258 144/188/259 146/190/260
