# This file uses centimeters as units for non-parametric coordinates.

mtllib toilet_paper.mtl
v -170.028656 74.669785 207.136246
v -170.465302 75.526749 207.129166
v -171.145416 76.206833 207.123566
v -172.002411 76.643486 207.119965
v -172.952393 76.793938 207.118713
v -173.902390 76.643486 207.119965
v -174.759384 76.206833 207.123566
v -175.439484 75.526749 207.129166
v -175.876144 74.669785 207.136246
v -176.026611 73.719826 207.144073
v -175.876144 72.769875 207.151917
v -175.439484 71.912910 207.158981
v -174.759384 71.232811 207.164597
v -173.902390 70.796173 207.168182
v -172.952393 70.645721 207.169434
v -172.002411 70.796173 207.168182
v -171.145416 71.232811 207.164597
v -170.465302 71.912910 207.158981
v -170.028656 72.769875 207.151917
v -169.878189 73.719826 207.144073
v -167.104889 75.619728 207.128403
v -167.978210 77.333656 207.114273
v -169.338440 78.693840 207.103043
v -171.052429 79.567139 207.095856
v -172.952393 79.868027 207.093353
v -174.852371 79.567139 207.095856
v -176.566345 78.693840 207.103043
v -177.926575 77.333656 207.114273
v -178.799896 75.619728 207.128403
v -179.100830 73.719826 207.144073
v -178.799896 71.819923 207.159744
v -177.926590 70.105995 207.173889
v -177.671265 69.653976 207.185104
v -174.852371 67.872528 207.192307
v -172.952393 67.571602 207.194794
v -171.052429 67.872528 207.192307
v -169.338440 68.745811 207.185104
v -167.978210 70.105995 207.173889
v -167.104904 71.819923 207.159744
v -166.803970 73.719826 207.144073
v -167.104889 75.653542 211.227219
v -167.978210 77.367470 211.213074
v -169.338440 78.727646 211.201859
v -171.052429 79.600937 211.194656
v -172.952393 79.901855 211.192169
v -174.852371 79.600937 211.194656
v -176.566345 78.727646 211.201859
v -177.926575 77.367462 211.213074
v -178.799896 75.653542 211.227219
v -179.100830 73.753632 211.242889
v -178.799896 71.853722 211.258560
v -178.337097 69.764793 211.272690
v -177.671265 69.687805 211.283920
v -174.852371 67.906326 211.291122
v -172.952393 67.605415 211.293594
v -171.052429 67.906326 211.291122
v -169.338440 68.779625 211.283920
v -167.978210 70.139786 211.272690
v -167.104904 71.853722 211.258560
v -166.803970 73.753632 211.242889
v -167.104889 75.687355 215.326019
v -167.978210 77.401283 215.311890
v -169.338440 78.761452 215.300659
v -171.052429 79.634750 215.293472
v -172.952393 79.935661 215.290985
v -174.852371 79.634750 215.293472
v -176.566345 78.761452 215.300659
v -177.926575 77.401283 215.311890
v -178.799896 75.687355 215.326019
v -179.100830 73.787445 215.341690
v -178.799896 71.887543 215.357376
v -178.337097 69.798630 215.371506
v -177.671265 69.721603 215.382721
v -174.852371 67.940147 215.389923
v -172.952393 67.639229 215.392410
v -171.052429 67.940147 215.389923
v -169.338440 68.813438 215.382721
v -167.978210 70.173622 215.371506
v -167.104904 71.887550 215.357376
v -166.803970 73.787445 215.341690
v -167.104889 75.721146 219.424835
v -167.978210 77.435074 219.410706
v -169.338440 78.795265 219.399475
v -171.052429 79.668564 219.392273
v -172.952393 79.969467 219.389801
v -174.852371 79.668564 219.392273
v -176.566345 78.795265 219.399475
v -177.926575 77.435074 219.410706
v -178.799896 75.721146 219.424835
v -179.100830 73.821251 219.440506
v -178.799896 71.921349 219.456177
v -177.926575 70.207420 219.470306
v -177.671265 69.755394 219.481537
v -174.852371 67.973946 219.488739
v -172.952393 67.673035 219.491226
v -171.052429 67.973953 219.488739
v -169.338440 68.847229 219.481537
v -167.978210 70.207420 219.470306
v -167.104904 71.921349 219.456177
v -166.803970 73.821251 219.440506
v -170.028656 74.771194 219.432663
v -170.465302 75.628159 219.425613
v -171.145416 76.308258 219.419998
v -172.002411 76.744904 219.416397
v -172.952393 76.895370 219.415146
v -173.902390 76.744904 219.416397
v -174.759384 76.308258 219.419998
v -175.439484 75.628159 219.425613
v -175.876144 74.771194 219.432663
v -176.026611 73.821251 219.440506
v -175.876144 72.871300 219.448349
v -175.439484 72.014336 219.455414
v -174.759384 71.334229 219.461014
v -173.902390 70.897598 219.464615
v -172.952393 70.747147 219.465866
v -172.002411 70.897598 219.464615
v -171.145416 71.334229 219.461014
v -170.465302 72.014336 219.455414
v -170.028656 72.871300 219.448349
v -169.878189 73.821251 219.440506
v -177.338058 64.755043 207.218018
v -176.990265 64.819519 207.229233
v -176.990265 64.853340 211.328049
v -177.338058 64.788834 211.316833
v -176.980865 64.887146 215.426865
v -177.338058 64.822670 215.415649
v -176.980865 64.920944 219.525665
v -177.328659 64.856468 219.514450
vt 0.574301 0.132108
vt 0.563205 0.110329
vt 0.545921 0.093046
vt 0.524142 0.081949
vt 0.500000 0.078125
vt 0.475858 0.081949
vt 0.454079 0.093046
vt 0.436796 0.110329
vt 0.425699 0.132108
vt 0.421875 0.156250
vt 0.425699 0.180392
vt 0.436796 0.202171
vt 0.454079 0.219454
vt 0.475858 0.230551
vt 0.500000 0.234375
vt 0.524142 0.230551
vt 0.545921 0.219454
vt 0.563204 0.202171
vt 0.574301 0.180392
vt 0.578125 0.156250
vt 0.648603 0.107966
vt 0.626409 0.064408
vt 0.591842 0.029841
vt 0.548284 0.007647
vt 0.500000 -0.000000
vt 0.451716 0.007647
vt 0.408159 0.029841
vt 0.373591 0.064409
vt 0.351397 0.107966
vt 0.343750 0.156250
vt 0.351397 0.204534
vt 0.373591 0.248091
vt 0.408159 0.282659
vt 0.451716 0.304853
vt 0.500000 0.312500
vt 0.548284 0.304853
vt 0.591841 0.282659
vt 0.626409 0.248091
vt 0.648603 0.204534
vt 0.656250 0.156250
vt 0.375000 0.312500
vt 0.387500 0.312500
vt 0.400000 0.312500
vt 0.412500 0.312500
vt 0.425000 0.312500
vt 0.437500 0.312500
vt 0.450000 0.312500
vt 0.462500 0.312500
vt 0.475000 0.312500
vt 0.487500 0.312500
vt 0.500000 0.312500
vt 0.512500 0.312500
vt 0.525000 0.312500
vt 0.537500 0.312500
vt 0.550000 0.312500
vt 0.562500 0.312500
vt 0.575000 0.312500
vt 0.587500 0.312500
vt 0.600000 0.312500
vt 0.612500 0.312500
vt 0.625000 0.312500
vt 0.375000 0.437813
vt 0.387500 0.437813
vt 0.400000 0.437813
vt 0.412500 0.437813
vt 0.425000 0.437813
vt 0.437500 0.437813
vt 0.450000 0.437813
vt 0.462500 0.437813
vt 0.475000 0.437813
vt 0.487500 0.437813
vt 0.500000 0.437813
vt 0.512500 0.437813
vt 0.525000 0.437813
vt 0.537500 0.437813
vt 0.550000 0.437813
vt 0.562500 0.437813
vt 0.575000 0.437813
vt 0.587500 0.437813
vt 0.600000 0.437813
vt 0.612500 0.437813
vt 0.625000 0.437813
vt 0.375000 0.563127
vt 0.387500 0.563127
vt 0.400000 0.563127
vt 0.412500 0.563127
vt 0.425000 0.563127
vt 0.437500 0.563127
vt 0.450000 0.563127
vt 0.462500 0.563127
vt 0.475000 0.563127
vt 0.487500 0.563127
vt 0.500000 0.563127
vt 0.512500 0.563127
vt 0.525000 0.563127
vt 0.537500 0.563127
vt 0.550000 0.563127
vt 0.562500 0.563127
vt 0.575000 0.563127
vt 0.587500 0.563127
vt 0.600000 0.563127
vt 0.612500 0.563127
vt 0.625000 0.563127
vt 0.375000 0.688440
vt 0.387500 0.688440
vt 0.400000 0.688440
vt 0.412500 0.688440
vt 0.425000 0.688440
vt 0.437500 0.688440
vt 0.450000 0.688440
vt 0.462500 0.688440
vt 0.475000 0.688440
vt 0.487500 0.688440
vt 0.500000 0.688440
vt 0.512500 0.688440
vt 0.525000 0.688440
vt 0.537500 0.688440
vt 0.550000 0.688440
vt 0.562500 0.688440
vt 0.575000 0.688440
vt 0.587500 0.688440
vt 0.600000 0.688440
vt 0.612500 0.688440
vt 0.625000 0.688440
vt 0.648603 0.795466
vt 0.626409 0.751908
vt 0.591842 0.717341
vt 0.548284 0.695147
vt 0.500000 0.687500
vt 0.451716 0.695147
vt 0.408159 0.717341
vt 0.373591 0.751909
vt 0.351397 0.795466
vt 0.343750 0.843750
vt 0.351397 0.892034
vt 0.373591 0.935591
vt 0.408159 0.970159
vt 0.451716 0.992353
vt 0.500000 1.000000
vt 0.548284 0.992353
vt 0.591841 0.970159
vt 0.626409 0.935591
vt 0.648603 0.892034
vt 0.656250 0.843750
vt 0.574312 0.819604
vt 0.563212 0.797823
vt 0.545926 0.780538
vt 0.524144 0.769441
vt 0.500000 0.765613
vt 0.475854 0.769440
vt 0.454073 0.780538
vt 0.436787 0.797824
vt 0.425689 0.819606
vt 0.421865 0.843751
vt 0.425690 0.867896
vt 0.436788 0.889677
vt 0.454074 0.906963
vt 0.475856 0.918061
vt 0.500001 0.921885
vt 0.524146 0.918060
vt 0.545927 0.906962
vt 0.563213 0.889676
vt 0.574310 0.867894
vt 0.578133 0.843750
vt 0.000000 0.000000
vt 1.000000 0.000000
vt 0.904397 1.165181
vt -0.091364 1.165180
vt 0.000000 0.000000
vt 1.000000 0.000000
vt 0.923710 1.165158
vt -0.071549 1.165161
vt 0.000000 0.000000
vt 1.000000 0.000000
vt 0.950289 1.165134
vt -0.044608 1.165141
vt 0.000000 0.000000
vt 1.000000 0.000000
vt 0.981538 1.165119
vt -0.013213 1.165129
vt 0.000000 0.000000
vt 1.000000 0.000000
vt 1.014394 1.165119
vt 0.019582 1.165129
vt 0.000000 0.000000
vt 1.000000 0.000000
vt 1.045642 1.165133
vt 0.050567 1.165142
vt 0.000000 0.000000
vt 1.000000 0.000000
vt 1.072224 1.165156
vt 0.076694 1.165161
vt 0.000000 0.000000
vt 1.000000 0.000000
vt 1.091533 1.165178
vt 0.095459 1.165180
vt 0.000000 0.000000
vt 1.000000 0.000000
vt 1.101688 1.165193
vt 0.105208 1.165191
vt 0.000000 0.000000
vt 1.000000 0.000000
vt 1.101694 1.165193
vt 0.105208 1.165191
vt 0.000000 0.000000
vt 1.000000 0.000000
vt 1.091539 1.165178
vt 0.095465 1.165180
vt 0.000000 0.000000
vt 1.000000 0.000000
vt 1.072224 1.165156
vt 0.076698 1.165161
vt 0.000000 0.000000
vt 1.000000 0.000000
vt 1.045641 1.165133
vt 0.050566 1.165141
vt 0.000000 0.000000
vt 1.000000 0.000000
vt 1.014393 1.165119
vt 0.019582 1.165129
vt 0.000000 0.000000
vt 1.000000 0.000000
vt 0.980418 1.165129
vt -0.014393 1.165119
vt 0.000000 0.000000
vt 1.000000 0.000000
vt 0.950289 1.165134
vt -0.044608 1.165141
vt 0.000000 0.000000
vt 1.000000 0.000000
vt 0.923706 1.165158
vt -0.071549 1.165161
vt 0.000000 0.000000
vt 1.000000 0.000000
vt 0.904391 1.165181
vt -0.091370 1.165180
vt 0.000000 0.000000
vt 1.000000 0.000000
vt 0.894792 1.165191
vt -0.101694 1.165193
vt 0.000000 0.000000
vt 1.000000 0.000000
vt 0.894236 1.165196
vt -0.101937 1.165191
vt 0.512500 0.312500
vt 0.525000 0.312500
vt 0.525000 0.437813
vt 0.512500 0.437813
vt 0.525000 0.563127
vt 0.512500 0.563127
vt 0.525000 0.688440
vt 0.512500 0.688440
vn -0.000003 -0.008247 -0.999966
vn -0.000007 -0.008249 -0.999966
vn -0.000007 -0.008249 -0.999966
vn -0.000003 -0.008247 -0.999966
vn -0.000007 -0.008247 -0.999966
vn -0.000007 -0.008247 -0.999966
vn 0.000007 -0.008248 -0.999966
vn 0.000007 -0.008248 -0.999966
vn 0.000000 -0.008249 -0.999966
vn 0.000000 -0.008249 -0.999966
vn -0.000007 -0.008248 -0.999966
vn -0.000007 -0.008248 -0.999966
vn 0.000000 -0.008247 -0.999966
vn 0.000000 -0.008247 -0.999966
vn 0.000000 -0.008249 -0.999966
vn 0.000000 -0.008249 -0.999966
vn 0.000003 -0.008247 -0.999966
vn 0.000003 -0.008247 -0.999966
vn 0.000003 -0.008248 -0.999966
vn 0.000003 -0.008248 -0.999966
vn 0.000005 -0.008250 -0.999966
vn 0.000005 -0.008250 -0.999966
vn 0.000635 -0.010019 -0.999950
vn 0.002513 -0.009914 -0.999948
vn -0.001327 -0.009116 -0.999958
vn 0.008962 -0.008482 -0.999924
vn -0.001185 -0.008215 -0.999966
vn -0.001152 -0.008216 -0.999966
vn 0.000000 -0.008251 -0.999966
vn 0.000000 -0.008251 -0.999966
vn 0.000007 -0.008248 -0.999966
vn 0.000007 -0.008248 -0.999966
vn 0.000007 -0.008247 -0.999966
vn 0.000007 -0.008247 -0.999966
vn -0.000007 -0.008249 -0.999966
vn -0.000007 -0.008249 -0.999966
vn -0.000005 -0.008250 -0.999966
vn -0.000005 -0.008250 -0.999966
vn -0.000002 -0.008248 -0.999966
vn -0.000002 -0.008248 -0.999966
vn 0.951057 0.309004 -0.002549
vn 0.809016 0.587767 -0.004849
vn 0.809016 0.587767 -0.004849
vn 0.951057 0.309005 -0.002549
vn 0.587786 0.808989 -0.006673
vn 0.587785 0.808990 -0.006673
vn 0.309015 0.951025 -0.007844
vn 0.309016 0.951024 -0.007844
vn -0.000000 0.999966 -0.008250
vn -0.000000 0.999966 -0.008248
vn -0.309015 0.951025 -0.007844
vn -0.309016 0.951024 -0.007845
vn -0.587787 0.808988 -0.006671
vn -0.587786 0.808989 -0.006673
vn -0.809018 0.587764 -0.004848
vn -0.809017 0.587766 -0.004849
vn -0.951057 0.309005 -0.002549
vn -0.951056 0.309007 -0.002549
vn -1.000000 0.000000 -0.000000
vn -1.000000 0.000002 -0.000000
vn -0.968527 -0.247091 -0.030013
vn -0.976037 -0.217156 -0.013954
vn -0.941647 -0.331286 -0.059577
vn -0.962039 -0.271532 -0.027425
vn 0.182064 -0.983253 0.008112
vn 0.182064 -0.983253 0.008112
vn 0.180863 -0.983476 0.008008
vn 0.180913 -0.983467 0.008012
vn -0.534231 -0.845310 0.006974
vn -0.403604 -0.914903 0.007548
vn -0.403728 -0.914848 0.007547
vn -0.534231 -0.845309 0.006973
vn -0.000000 -0.999966 0.008249
vn 0.000000 -0.999966 0.008250
vn 0.309018 -0.951024 0.007844
vn 0.309018 -0.951024 0.007845
vn 0.587783 -0.808991 0.006671
vn 0.587784 -0.808991 0.006674
vn 0.809019 -0.587763 0.004846
vn 0.809018 -0.587764 0.004849
vn 0.951057 -0.309004 0.002548
vn 0.951056 -0.309007 0.002549
vn 1.000000 -0.000004 -0.000000
vn 1.000000 -0.000006 -0.000000
vn 0.809016 0.587767 -0.004847
vn 0.951057 0.309005 -0.002548
vn 0.587786 0.808989 -0.006673
vn 0.309017 0.951024 -0.007845
vn 0.000000 0.999966 -0.008248
vn -0.309017 0.951024 -0.007845
vn -0.587786 0.808989 -0.006674
vn -0.809016 0.587767 -0.004848
vn -0.951056 0.309009 -0.002549
vn -1.000000 0.000000 0.000000
vn -0.976015 -0.216996 0.017562
vn -0.962053 -0.271000 0.031834
vn 0.179706 -0.983689 0.007907
vn 0.179707 -0.983689 0.007907
vn -0.403726 -0.914849 0.007545
vn -0.534230 -0.845311 0.006971
vn 0.000001 -0.999966 0.008248
vn 0.309018 -0.951024 0.007845
vn 0.587785 -0.808990 0.006673
vn 0.809018 -0.587763 0.004849
vn 0.951057 -0.309006 0.002549
vn 1.000000 -0.000004 0.000000
vn 0.809017 0.587766 -0.004847
vn 0.951057 0.309005 -0.002548
vn 0.587787 0.808989 -0.006673
vn 0.309017 0.951024 -0.007846
vn 0.000000 0.999966 -0.008250
vn -0.309016 0.951024 -0.007845
vn -0.587786 0.808989 -0.006673
vn -0.809017 0.587766 -0.004847
vn -0.951056 0.309008 -0.002548
vn -1.000000 -0.000004 0.000000
vn -0.968507 -0.246644 0.034075
vn -0.941620 -0.330346 0.064991
vn 0.179685 -0.983693 0.007906
vn 0.179685 -0.983692 0.007906
vn -0.403848 -0.914795 0.007543
vn -0.534227 -0.845312 0.006970
vn 0.000001 -0.999966 0.008246
vn 0.309016 -0.951024 0.007843
vn 0.587784 -0.808990 0.006670
vn 0.809018 -0.587764 0.004846
vn 0.951058 -0.309003 0.002548
vn 1.000000 -0.000000 0.000000
vn -0.000005 0.008245 0.999966
vn 0.000002 0.008247 0.999966
vn 0.000002 0.008247 0.999966
vn -0.000005 0.008245 0.999966
vn 0.000003 0.008252 0.999966
vn 0.000003 0.008252 0.999966
vn 0.000000 0.008249 0.999966
vn 0.000000 0.008249 0.999966
vn 0.000000 0.008248 0.999966
vn 0.000000 0.008248 0.999966
vn 0.000000 0.008249 0.999966
vn 0.000000 0.008249 0.999966
vn 0.000000 0.008252 0.999966
vn 0.000000 0.008252 0.999966
vn 0.000003 0.008247 0.999966
vn 0.000003 0.008247 0.999966
vn 0.000007 0.008245 0.999966
vn 0.000007 0.008245 0.999966
vn -0.000002 0.008250 0.999966
vn -0.000002 0.008250 0.999966
vn -0.000000 0.008247 0.999966
vn 0.000000 0.008247 0.999966
vn -0.002504 0.009909 0.999948
vn -0.000631 0.010015 0.999950
vn -0.008979 0.008465 0.999924
vn 0.001318 0.009120 0.999958
vn 0.001149 0.008219 0.999966
vn 0.001182 0.008218 0.999966
vn -0.000007 0.008251 0.999966
vn -0.000007 0.008251 0.999966
vn 0.000000 0.008251 0.999966
vn -0.000000 0.008251 0.999966
vn 0.000007 0.008249 0.999966
vn 0.000007 0.008249 0.999966
vn -0.000007 0.008246 0.999966
vn -0.000007 0.008246 0.999966
vn -0.000002 0.008247 0.999966
vn -0.000002 0.008247 0.999966
vn 0.000002 0.008250 0.999966
vn 0.000002 0.008250 0.999966
vn -0.891014 -0.453960 0.003744
vn -0.891014 -0.453960 0.003744
vn -0.891014 -0.453960 0.003744
vn -0.891014 -0.453960 0.003744
vn -0.707105 -0.707085 0.005832
vn -0.707105 -0.707085 0.005832
vn -0.707105 -0.707085 0.005832
vn -0.707105 -0.707085 0.005832
vn -0.453990 -0.890977 0.007349
vn -0.453990 -0.890977 0.007349
vn -0.453990 -0.890977 0.007349
vn -0.453990 -0.890977 0.007349
vn -0.156437 -0.987654 0.008146
vn -0.156437 -0.987654 0.008146
vn -0.156437 -0.987654 0.008146
vn -0.156437 -0.987654 0.008146
vn 0.156437 -0.987654 0.008146
vn 0.156437 -0.987654 0.008146
vn 0.156437 -0.987654 0.008146
vn 0.156437 -0.987654 0.008146
vn 0.453990 -0.890977 0.007349
vn 0.453990 -0.890977 0.007349
vn 0.453990 -0.890977 0.007349
vn 0.453990 -0.890977 0.007349
vn 0.707115 -0.707074 0.005832
vn 0.707115 -0.707074 0.005832
vn 0.707115 -0.707074 0.005832
vn 0.707115 -0.707075 0.005832
vn 0.891006 -0.453977 0.003744
vn 0.891006 -0.453977 0.003744
vn 0.891006 -0.453977 0.003744
vn 0.891006 -0.453977 0.003744
vn 0.987689 -0.156425 0.001290
vn 0.987689 -0.156425 0.001290
vn 0.987689 -0.156425 0.001290
vn 0.987689 -0.156425 0.001290
vn 0.987689 0.156425 -0.001290
vn 0.987689 0.156425 -0.001290
vn 0.987689 0.156425 -0.001290
vn 0.987689 0.156425 -0.001290
vn 0.891005 0.453978 -0.003745
vn 0.891005 0.453977 -0.003745
vn 0.891005 0.453978 -0.003745
vn 0.891005 0.453977 -0.003745
vn 0.707121 0.707069 -0.005832
vn 0.707121 0.707069 -0.005832
vn 0.707121 0.707069 -0.005832
vn 0.707121 0.707069 -0.005832
vn 0.453977 0.890983 -0.007348
vn 0.453977 0.890983 -0.007348
vn 0.453977 0.890983 -0.007348
vn 0.453977 0.890983 -0.007348
vn 0.156429 0.987656 -0.008146
vn 0.156429 0.987656 -0.008146
vn 0.156429 0.987656 -0.008146
vn 0.156429 0.987656 -0.008146
vn -0.156429 0.987656 -0.008147
vn -0.156429 0.987656 -0.008147
vn -0.156429 0.987656 -0.008147
vn -0.156429 0.987656 -0.008147
vn -0.453977 0.890983 -0.007348
vn -0.453977 0.890983 -0.007348
vn -0.453977 0.890983 -0.007348
vn -0.453977 0.890983 -0.007348
vn -0.707111 0.707079 -0.005832
vn -0.707111 0.707079 -0.005832
vn -0.707111 0.707079 -0.005832
vn -0.707111 0.707079 -0.005832
vn -0.891014 0.453961 -0.003744
vn -0.891014 0.453961 -0.003744
vn -0.891014 0.453961 -0.003744
vn -0.891014 0.453961 -0.003744
vn -0.987689 0.156425 -0.001290
vn -0.987689 0.156425 -0.001290
vn -0.987689 0.156425 -0.001290
vn -0.987689 0.156425 -0.001290
vn -0.987686 -0.156445 0.001290
vn -0.987686 -0.156445 0.001290
vn -0.987686 -0.156445 0.001290
vn -0.987686 -0.156445 0.001290
vn 0.034369 -0.004378 -0.999400
vn 0.034369 -0.004378 -0.999400
vn 0.990225 0.139477 -0.001151
vn 0.990158 0.139942 -0.001722
vn 0.990158 0.139943 -0.001723
vn 0.990225 0.139477 -0.001151
vn -0.984390 -0.173791 -0.027818
vn -0.986815 -0.152176 -0.055123
vn -0.986815 -0.152176 -0.055123
vn -0.984319 -0.174292 -0.027183
vn 0.990024 0.140886 -0.001730
vn 0.990024 0.140886 -0.001729
vn -0.984295 -0.173745 0.031258
vn -0.984231 -0.174208 0.030667
vn 0.989957 0.141364 -0.001165
vn 0.989957 0.141364 -0.001165
vn -0.034414 0.004307 0.999398
vn -0.034414 0.004307 0.999398
vn -0.986622 -0.152071 0.058750
vn -0.986622 -0.152071 0.058750
s 1
usemtl initialShadingGroup
f 1/1/1 2/2/2 22/22/3 21/21/4
f 2/2/2 3/3/5 23/23/6 22/22/3
f 3/3/5 4/4/7 24/24/8 23/23/6
f 4/4/7 5/5/9 25/25/10 24/24/8
f 5/5/9 6/6/11 26/26/12 25/25/10
f 6/6/11 7/7/13 27/27/14 26/26/12
f 7/7/13 8/8/15 28/28/16 27/27/14
f 8/8/15 9/9/17 29/29/18 28/28/16
f 9/9/17 10/10/19 30/30/20 29/29/18
f 10/10/19 11/11/21 31/31/22 30/30/20
f 11/11/21 12/12/23 32/32/24 31/31/22
f 12/12/23 13/13/25 33/33/26 32/32/24
f 13/13/25 14/14/27 34/34/28 33/33/26
f 14/14/27 15/15/29 35/35/30 34/34/28
f 15/15/29 16/16/31 36/36/32 35/35/30
f 16/16/31 17/17/33 37/37/34 36/36/32
f 17/17/33 18/18/35 38/38/36 37/37/34
f 18/18/35 19/19/37 39/39/38 38/38/36
f 19/19/37 20/20/39 40/40/40 39/39/38
f 20/20/39 1/1/1 21/21/4 40/40/40
s 2
f 21/41/41 22/42/42 42/63/43 41/62/44
f 22/42/42 23/43/45 43/64/46 42/63/43
f 23/43/45 24/44/47 44/65/48 43/64/46
f 24/44/47 25/45/49 45/66/50 44/65/48
f 25/45/49 26/46/51 46/67/52 45/66/50
f 26/46/51 27/47/53 47/68/54 46/67/52
f 27/47/53 28/48/55 48/69/56 47/68/54
f 28/48/55 29/49/57 49/70/58 48/69/56
f 29/49/57 30/50/59 50/71/60 49/70/58
f 30/50/59 31/51/61 51/72/62 50/71/60
f 31/51/61 32/52/63 52/73/64 51/72/62
s 3
f 121/245/65 122/246/66 123/247/67 124/248/68
s 2
f 33/53/69 34/54/70 54/75/71 53/74/72
f 34/54/70 35/55/73 55/76/74 54/75/71
f 35/55/73 36/56/75 56/77/76 55/76/74
f 36/56/75 37/57/77 57/78/78 56/77/76
f 37/57/77 38/58/79 58/79/80 57/78/78
f 38/58/79 39/59/81 59/80/82 58/79/80
f 39/59/81 40/60/83 60/81/84 59/80/82
f 40/60/83 21/61/41 41/82/44 60/81/84
f 41/62/44 42/63/43 62/84/85 61/83/86
f 42/63/43 43/64/46 63/85/87 62/84/85
f 43/64/46 44/65/48 64/86/88 63/85/87
f 44/65/48 45/66/50 65/87/89 64/86/88
f 45/66/50 46/67/52 66/88/90 65/87/89
f 46/67/52 47/68/54 67/89/91 66/88/90
f 47/68/54 48/69/56 68/90/92 67/89/91
f 48/69/56 49/70/58 69/91/93 68/90/92
f 49/70/58 50/71/60 70/92/94 69/91/93
f 50/71/60 51/72/62 71/93/95 70/92/94
f 51/72/62 52/73/64 72/94/96 71/93/95
s 3
f 124/248/68 123/247/67 125/249/97 126/250/98
s 2
f 53/74/72 54/75/71 74/96/99 73/95/100
f 54/75/71 55/76/74 75/97/101 74/96/99
f 55/76/74 56/77/76 76/98/102 75/97/101
f 56/77/76 57/78/78 77/99/103 76/98/102
f 57/78/78 58/79/80 78/100/104 77/99/103
f 58/79/80 59/80/82 79/101/105 78/100/104
f 59/80/82 60/81/84 80/102/106 79/101/105
f 60/81/84 41/82/44 61/103/86 80/102/106
f 61/83/86 62/84/85 82/105/107 81/104/108
f 62/84/85 63/85/87 83/106/109 82/105/107
f 63/85/87 64/86/88 84/107/110 83/106/109
f 64/86/88 65/87/89 85/108/111 84/107/110
f 65/87/89 66/88/90 86/109/112 85/108/111
f 66/88/90 67/89/91 87/110/113 86/109/112
f 67/89/91 68/90/92 88/111/114 87/110/113
f 68/90/92 69/91/93 89/112/115 88/111/114
f 69/91/93 70/92/94 90/113/116 89/112/115
f 70/92/94 71/93/95 91/114/117 90/113/116
f 71/93/95 72/94/96 92/115/118 91/114/117
s 3
f 126/250/98 125/249/97 127/251/119 128/252/120
s 2
f 73/95/100 74/96/99 94/117/121 93/116/122
f 74/96/99 75/97/101 95/118/123 94/117/121
f 75/97/101 76/98/102 96/119/124 95/118/123
f 76/98/102 77/99/103 97/120/125 96/119/124
f 77/99/103 78/100/104 98/121/126 97/120/125
f 78/100/104 79/101/105 99/122/127 98/121/126
f 79/101/105 80/102/106 100/123/128 99/122/127
f 80/102/106 61/103/86 81/124/108 100/123/128
s 5
f 81/143/129 82/142/130 102/162/131 101/163/132
f 82/142/130 83/141/133 103/161/134 102/162/131
f 83/141/133 84/140/135 104/160/136 103/161/134
f 84/140/135 85/139/137 105/159/138 104/160/136
f 85/139/137 86/138/139 106/158/140 105/159/138
f 86/138/139 87/137/141 107/157/142 106/158/140
f 87/137/141 88/136/143 108/156/144 107/157/142
f 88/136/143 89/135/145 109/155/146 108/156/144
f 89/135/145 90/134/147 110/154/148 109/155/146
f 90/134/147 91/133/149 111/153/150 110/154/148
f 91/133/149 92/132/151 112/152/152 111/153/150
f 92/132/151 93/131/153 113/151/154 112/152/152
f 93/131/153 94/130/155 114/150/156 113/151/154
f 94/130/155 95/129/157 115/149/158 114/150/156
f 95/129/157 96/128/159 116/148/160 115/149/158
f 96/128/159 97/127/161 117/147/162 116/148/160
f 97/127/161 98/126/163 118/146/164 117/147/162
f 98/126/163 99/125/165 119/145/166 118/146/164
f 99/125/165 100/144/167 120/164/168 119/145/166
f 100/144/167 81/143/129 101/163/132 120/164/168
s off
f 2/165/169 1/166/170 101/167/171 102/168/172
f 3/169/173 2/170/174 102/171/175 103/172/176
f 4/173/177 3/174/178 103/175/179 104/176/180
f 5/177/181 4/178/182 104/179/183 105/180/184
f 6/181/185 5/182/186 105/183/187 106/184/188
f 7/185/189 6/186/190 106/187/191 107/188/192
f 8/189/193 7/190/194 107/191/195 108/192/196
f 9/193/197 8/194/198 108/195/199 109/196/200
f 10/197/201 9/198/202 109/199/203 110/200/204
f 11/201/205 10/202/206 110/203/207 111/204/208
f 12/205/209 11/206/210 111/207/211 112/208/212
f 13/209/213 12/210/214 112/211/215 113/212/216
f 14/213/217 13/214/218 113/215/219 114/216/220
f 15/217/221 14/218/222 114/219/223 115/220/224
f 16/221/225 15/222/226 115/223/227 116/224/228
f 17/225/229 16/226/230 116/227/231 117/228/232
f 18/229/233 17/230/234 117/231/235 118/232/236
f 19/233/237 18/234/238 118/235/239 119/236/240
f 20/237/241 19/238/242 119/239/243 120/240/244
f 1/241/245 20/242/246 120/243/247 101/244/248
s 1
f 32/52/24 33/53/26 122/246/249 121/245/250
s 6
f 33/53/251 53/74/252 123/247/253 122/246/254
s 7
f 52/73/255 32/52/256 121/245/257 124/248/258
s 6
f 53/74/252 73/95/259 125/249/260 123/247/253
s 7
f 72/94/261 52/73/255 124/248/258 126/250/262
s 6
f 73/95/259 93/116/263 127/251/264 125/249/260
s 5
f 93/116/153 92/115/151 128/252/265 127/251/266
s 7
f 92/115/267 72/94/261 126/250/262 128/252/268
