# This file uses centimeters as units for non-parametric coordinates.

mtllib yoga_rug.mtl
v -505.525879 2.712736 45.507874
v -505.160278 2.712736 56.754242
v -504.794617 2.712736 68.000580
v -504.429016 2.712736 79.246933
v -504.063416 2.712736 90.493271
v -503.697754 2.712736 101.739624
v -503.332153 2.712736 112.985977
v -502.966553 2.712736 124.232315
v -502.600952 2.712736 135.478668
v -505.525879 3.922048 45.507874
v -505.160278 3.922048 56.754242
v -504.794617 3.922048 68.000580
v -504.429016 3.922048 79.246933
v -504.063416 3.922048 90.493271
v -503.697754 3.922048 101.739624
v -503.332153 3.922048 112.985977
v -502.966553 3.922048 124.232315
v -502.600952 3.922048 135.478668
v -505.525879 5.131360 45.507874
v -505.160278 5.131360 56.754242
v -504.794617 5.131360 68.000580
v -504.429016 5.131360 79.246933
v -504.063416 5.131360 90.493271
v -503.697754 5.131360 101.739624
v -503.332153 5.131360 112.985977
v -502.966553 5.131360 124.232315
v -502.600952 5.131360 135.478668
v -490.569519 6.340671 51.407974
v -490.255737 6.340671 61.059433
v -489.941956 6.340671 70.710876
v -489.628204 6.340671 80.362350
v -489.314453 6.340671 90.013794
v -489.000671 6.340671 99.665237
v -488.686890 6.340671 109.316696
v -488.373108 6.340671 118.968155
v -488.059357 6.340671 128.619598
v -454.868347 6.340671 50.247326
v -463.559540 6.340671 55.401791
v -463.193909 6.340671 66.648148
v -462.828308 6.340671 77.894485
v -462.462677 6.340671 89.140839
v -462.097046 6.340671 100.387184
v -461.731445 6.340671 111.633530
v -461.365845 6.340671 122.879883
v -452.358215 6.340671 127.458954
v -419.167236 6.340671 49.086685
v -421.958801 6.340671 54.049347
v -421.593201 6.340671 65.295692
v -421.227570 6.340671 76.542046
v -420.861938 6.340671 87.788391
v -420.496338 6.340671 99.034737
v -420.130707 6.340671 110.281082
v -419.765076 6.340671 121.527428
v -416.657104 6.340671 126.298302
v -383.466064 6.340671 47.926048
v -380.358063 6.340671 52.696922
v -379.992432 6.340671 63.943268
v -379.626831 6.340671 75.189613
v -379.261200 6.340671 86.435966
v -378.895569 6.340671 97.682312
v -378.529968 6.340671 108.928658
v -378.164337 6.340671 120.175003
v -380.955933 6.340671 125.137672
v -347.764954 6.340671 46.765404
v -338.757324 6.340671 51.344479
v -338.391693 6.340671 62.590824
v -338.026093 6.340671 73.837166
v -337.660461 6.340671 85.083511
v -337.294861 6.340671 96.329865
v -336.929230 6.340671 107.576210
v -336.563599 6.340671 118.822556
v -345.254791 6.340671 123.977020
v -312.063782 6.340671 45.604755
v -311.750031 6.340671 55.256210
v -311.436249 6.340671 64.907654
v -311.122498 6.340671 74.559120
v -310.808716 6.340671 84.210564
v -310.494934 6.340671 93.862022
v -310.181183 6.340671 103.513474
v -309.867401 6.340671 113.164932
v -309.553650 6.340671 122.816376
v -297.522217 5.131360 38.745670
v -297.156586 5.131360 49.992035
v -296.790985 5.131360 61.238380
v -296.425354 5.131360 72.484726
v -296.059753 5.131360 83.731079
v -295.694122 5.131360 94.977417
v -295.328491 5.131360 106.223770
v -294.962891 5.131360 117.470116
v -294.597260 5.131360 128.716461
v -297.522217 3.922048 38.745670
v -297.156586 3.922048 49.992035
v -296.790985 3.922048 61.238380
v -296.425354 3.922048 72.484726
v -296.059753 3.922048 83.731079
v -295.694122 3.922048 94.977417
v -295.328491 3.922048 106.223770
v -294.962891 3.922048 117.470116
v -294.597260 3.922048 128.716461
v -297.522217 2.712736 38.745670
v -297.156586 2.712736 49.992035
v -296.790985 2.712736 61.238380
v -296.425354 2.712736 72.484726
v -296.059753 2.712736 83.731079
v -295.694122 2.712736 94.977417
v -295.328491 2.712736 106.223770
v -294.962891 2.712736 117.470116
v -294.597260 2.712736 128.716461
v -336.197998 2.712736 130.068909
v -377.798706 2.712736 131.421341
v -419.399475 2.712736 132.773788
v -461.000183 2.712736 134.126236
v -336.197998 3.922048 130.068909
v -377.798706 3.922048 131.421341
v -419.399475 3.922048 132.773788
v -461.000183 3.922048 134.126236
v -336.197998 5.131360 130.068909
v -377.798706 5.131360 131.421341
v -419.399475 5.131360 132.773788
v -461.000183 5.131360 134.126236
v -339.122925 2.712736 40.098114
v -380.723694 2.712736 41.450562
v -422.324402 2.712736 42.802986
v -463.925171 2.712736 44.155422
v -339.122925 3.922048 40.098114
v -380.723694 3.922048 41.450562
v -422.324402 3.922048 42.802986
v -463.925171 3.922048 44.155422
v -339.122925 5.131360 40.098114
v -380.723694 5.131360 41.450562
v -422.324402 5.131360 42.802986
v -463.925171 5.131360 44.155422
v -338.757324 2.712736 51.344479
v -338.391693 2.712736 62.590824
v -338.026093 2.712736 73.837166
v -337.660461 2.712736 85.083511
v -337.294861 2.712736 96.329865
v -336.929230 2.712736 107.576210
v -336.563599 2.712736 118.822556
v -378.164337 2.712736 120.175003
v -378.529968 2.712736 108.928658
v -378.895569 2.712736 97.682312
v -379.261200 2.712736 86.435966
v -379.626831 2.712736 75.189613
v -379.992432 2.712736 63.943268
v -380.358063 2.712736 52.696922
v -421.958801 2.712736 54.049347
v -421.593201 2.712736 65.295692
v -421.227570 2.712736 76.542046
v -420.861938 2.712736 87.788391
v -420.496338 2.712736 99.034737
v -420.130707 2.712736 110.281082
v -419.765076 2.712736 121.527428
v -461.365845 2.712736 122.879883
v -461.731445 2.712736 111.633530
v -462.097046 2.712736 100.387184
v -462.462677 2.712736 89.140839
v -462.828308 2.712736 77.894485
v -463.193909 2.712736 66.648148
v -463.559540 2.712736 55.401791
vt 0.375000 0.142857
vt 0.406250 0.142857
vt 0.437500 0.142857
vt 0.468750 0.142857
vt 0.500000 0.142857
vt 0.531250 0.142857
vt 0.562500 0.142857
vt 0.593750 0.142857
vt 0.625000 0.142857
vt 0.375000 0.178571
vt 0.406250 0.178571
vt 0.437500 0.178571
vt 0.468750 0.178571
vt 0.500000 0.178571
vt 0.531250 0.178571
vt 0.562500 0.178571
vt 0.593750 0.178571
vt 0.625000 0.178571
vt 0.375000 0.214286
vt 0.406250 0.214286
vt 0.437500 0.214286
vt 0.468750 0.214286
vt 0.500000 0.214286
vt 0.531250 0.214286
vt 0.562500 0.214286
vt 0.593750 0.214286
vt 0.625000 0.214286
vt 0.375000 0.250000
vt 0.406250 0.250000
vt 0.437500 0.250000
vt 0.468750 0.250000
vt 0.500000 0.250000
vt 0.531250 0.250000
vt 0.562500 0.250000
vt 0.593750 0.250000
vt 0.625000 0.250000
vt 0.375000 0.300000
vt 0.406250 0.300000
vt 0.437500 0.300000
vt 0.468750 0.300000
vt 0.500000 0.300000
vt 0.531250 0.300000
vt 0.562500 0.300000
vt 0.593750 0.300000
vt 0.625000 0.300000
vt 0.375000 0.350000
vt 0.406250 0.350000
vt 0.437500 0.350000
vt 0.468750 0.350000
vt 0.500000 0.350000
vt 0.531250 0.350000
vt 0.562500 0.350000
vt 0.593750 0.350000
vt 0.625000 0.350000
vt 0.375000 0.400000
vt 0.406250 0.400000
vt 0.437500 0.400000
vt 0.468750 0.400000
vt 0.500000 0.400000
vt 0.531250 0.400000
vt 0.562500 0.400000
vt 0.593750 0.400000
vt 0.625000 0.400000
vt 0.375000 0.450000
vt 0.406250 0.450000
vt 0.437500 0.450000
vt 0.468750 0.450000
vt 0.500000 0.450000
vt 0.531250 0.450000
vt 0.562500 0.450000
vt 0.593750 0.450000
vt 0.625000 0.450000
vt 0.375000 0.500000
vt 0.406250 0.500000
vt 0.437500 0.500000
vt 0.468750 0.500000
vt 0.500000 0.500000
vt 0.531250 0.500000
vt 0.562500 0.500000
vt 0.593750 0.500000
vt 0.625000 0.500000
vt 0.375000 0.535714
vt 0.406250 0.535714
vt 0.437500 0.535714
vt 0.468750 0.535714
vt 0.500000 0.535714
vt 0.531250 0.535714
vt 0.562500 0.535714
vt 0.593750 0.535714
vt 0.625000 0.535714
vt 0.375000 0.571429
vt 0.406250 0.571429
vt 0.437500 0.571429
vt 0.468750 0.571429
vt 0.500000 0.571429
vt 0.531250 0.571429
vt 0.562500 0.571429
vt 0.593750 0.571429
vt 0.625000 0.571429
vt 0.375000 0.607143
vt 0.406250 0.607143
vt 0.437500 0.607143
vt 0.468750 0.607143
vt 0.500000 0.607143
vt 0.531250 0.607143
vt 0.562500 0.607143
vt 0.593750 0.607143
vt 0.625000 0.607143
vt 0.875000 0.142857
vt 0.825000 0.142857
vt 0.775000 0.142857
vt 0.725000 0.142857
vt 0.675000 0.142857
vt 0.875000 0.178571
vt 0.825000 0.178571
vt 0.775000 0.178571
vt 0.725000 0.178571
vt 0.675000 0.178571
vt 0.875000 0.214286
vt 0.825000 0.214286
vt 0.775000 0.214286
vt 0.725000 0.214286
vt 0.675000 0.214286
vt 0.875000 0.250000
vt 0.825000 0.250000
vt 0.775000 0.250000
vt 0.725000 0.250000
vt 0.675000 0.250000
vt 0.125000 0.142857
vt 0.175000 0.142857
vt 0.225000 0.142857
vt 0.275000 0.142857
vt 0.325000 0.142857
vt 0.125000 0.178571
vt 0.175000 0.178571
vt 0.225000 0.178571
vt 0.275000 0.178571
vt 0.325000 0.178571
vt 0.125000 0.214286
vt 0.175000 0.214286
vt 0.225000 0.214286
vt 0.275000 0.214286
vt 0.325000 0.214286
vt 0.125000 0.250000
vt 0.175000 0.250000
vt 0.225000 0.250000
vt 0.275000 0.250000
vt 0.325000 0.250000
vt 0.256250 0.142857
vt 0.337500 0.142857
vt 0.418750 0.142857
vt 0.500000 0.142857
vt 0.581250 0.142857
vt 0.662500 0.142857
vt 0.743750 0.142857
vt 0.706250 0.142857
vt 0.637500 0.142857
vt 0.568750 0.142857
vt 0.500000 0.142857
vt 0.431250 0.142857
vt 0.362500 0.142857
vt 0.293750 0.142857
vt 0.331250 0.142857
vt 0.387500 0.142857
vt 0.443750 0.142857
vt 0.500000 0.142857
vt 0.556250 0.142857
vt 0.612500 0.142857
vt 0.668750 0.142857
vt 0.631250 0.142857
vt 0.587500 0.142857
vt 0.543750 0.142857
vt 0.500000 0.142857
vt 0.456250 0.142857
vt 0.412500 0.142857
vt 0.368750 0.142857
vn -0.999472 0.000000 0.032491
vn -0.999472 0.000000 0.032494
vn -0.999472 0.000000 0.032494
vn -0.999472 0.000000 0.032491
vn -0.999472 0.000000 0.032494
vn -0.999472 0.000000 0.032494
vn -0.999472 0.000000 0.032491
vn -0.999472 0.000000 0.032491
vn -0.999472 0.000000 0.032494
vn -0.999472 0.000000 0.032494
vn -0.999472 0.000000 0.032494
vn -0.999472 0.000000 0.032494
vn -0.999472 0.000000 0.032491
vn -0.999472 0.000000 0.032491
vn -0.999472 0.000000 0.032491
vn -0.999472 0.000000 0.032491
vn -0.999472 0.000000 0.032491
vn -0.999472 0.000000 0.032491
vn -0.167654 0.985831 0.005451
vn -0.196957 0.980391 0.006403
vn -0.167654 0.985831 0.005451
vn -0.167654 0.985831 0.005450
vn -0.167654 0.985831 0.005451
vn -0.167654 0.985831 0.005451
vn -0.167654 0.985831 0.005450
vn -0.167654 0.985831 0.005450
vn -0.196958 0.980391 0.006403
vn -0.081633 0.996659 0.002654
vn -0.081633 0.996659 0.002654
vn -0.081633 0.996659 0.002654
vn -0.081633 0.996659 0.002654
vn -0.081633 0.996659 0.002654
vn -0.081633 0.996659 0.002654
vn -0.081633 0.996659 0.002654
vn -0.081633 0.996659 0.002654
vn -0.081633 0.996659 0.002654
vn 0.000000 1.000000 0.000000
vn 0.000000 1.000000 -0.000000
vn 0.000000 1.000000 -0.000000
vn 0.000000 1.000000 0.000000
vn 0.000000 1.000000 -0.000000
vn 0.000000 1.000000 -0.000000
vn 0.000000 1.000000 -0.000000
vn 0.000000 1.000000 -0.000000
vn 0.000000 1.000000 -0.000000
vn 0.000000 1.000000 -0.000000
vn 0.000000 1.000000 -0.000000
vn 0.000000 1.000000 -0.000000
vn 0.000000 1.000000 -0.000000
vn 0.000000 1.000000 0.000000
vn 0.000000 1.000000 -0.000000
vn 0.000000 1.000000 0.000000
vn 0.000000 1.000000 0.000000
vn 0.000000 1.000000 0.000000
vn 0.000000 1.000000 0.000000
vn 0.000000 1.000000 -0.000000
vn 0.000000 1.000000 0.000000
vn 0.000000 1.000000 -0.000000
vn 0.000000 1.000000 0.000000
vn 0.000000 1.000000 0.000000
vn 0.000000 1.000000 -0.000000
vn 0.000000 1.000000 0.000000
vn 0.000000 1.000000 0.000000
vn 0.000000 1.000000 0.000000
vn 0.000000 1.000000 -0.000000
vn 0.000000 1.000000 0.000000
vn 0.000000 1.000000 -0.000000
vn 0.000000 1.000000 0.000000
vn 0.000000 1.000000 0.000000
vn 0.000000 1.000000 -0.000000
vn 0.000000 1.000000 0.000000
vn 0.000000 1.000000 0.000000
vn 0.000000 1.000000 0.000000
vn 0.000000 1.000000 -0.000000
vn 0.000000 1.000000 0.000000
vn 0.000000 1.000000 0.000000
vn 0.000000 1.000000 0.000000
vn 0.000000 1.000000 0.000000
vn 0.000000 1.000000 0.000000
vn 0.000000 1.000000 0.000000
vn 0.000000 1.000000 0.000000
vn 0.000000 1.000000 0.000000
vn 0.000000 1.000000 0.000000
vn 0.000000 1.000000 0.000000
vn 0.000000 1.000000 0.000000
vn 0.000000 1.000000 0.000000
vn 0.000000 1.000000 0.000000
vn 0.000000 1.000000 0.000000
vn 0.000000 1.000000 0.000000
vn 0.000000 1.000000 0.000000
vn 0.081633 0.996659 -0.002654
vn 0.081633 0.996659 -0.002654
vn 0.167654 0.985831 -0.005450
vn 0.196957 0.980391 -0.006403
vn 0.081633 0.996659 -0.002654
vn 0.167654 0.985831 -0.005450
vn 0.081633 0.996659 -0.002654
vn 0.167654 0.985831 -0.005450
vn 0.081633 0.996659 -0.002654
vn 0.167654 0.985831 -0.005450
vn 0.081633 0.996659 -0.002654
vn 0.167654 0.985831 -0.005451
vn 0.081632 0.996659 -0.002654
vn 0.167654 0.985831 -0.005450
vn 0.081633 0.996659 -0.002654
vn 0.167654 0.985831 -0.005450
vn 0.081633 0.996659 -0.002654
vn 0.196958 0.980391 -0.006403
vn 0.999472 0.000000 -0.032493
vn 0.999472 0.000000 -0.032494
vn 0.999472 0.000000 -0.032493
vn 0.999472 0.000000 -0.032493
vn 0.999472 0.000000 -0.032493
vn 0.999472 0.000000 -0.032494
vn 0.999472 0.000000 -0.032493
vn 0.999472 0.000000 -0.032493
vn 0.999472 0.000000 -0.032494
vn 0.999472 0.000000 -0.032493
vn 0.999472 0.000000 -0.032494
vn 0.999472 0.000000 -0.032493
vn 0.999472 0.000000 -0.032493
vn 0.999472 0.000000 -0.032493
vn 0.999472 0.000000 -0.032494
vn 0.999472 0.000000 -0.032493
vn 0.999472 0.000000 -0.032493
vn 0.999472 0.000000 -0.032494
vn 0.032493 0.000000 0.999472
vn 0.032493 0.000000 0.999472
vn 0.032493 0.000000 0.999472
vn 0.032493 0.000000 0.999472
vn 0.032493 0.000000 0.999472
vn 0.032493 0.000000 0.999472
vn 0.032493 0.000000 0.999472
vn 0.032493 0.000000 0.999472
vn 0.032493 0.000000 0.999472
vn 0.032493 0.000000 0.999472
vn 0.032493 0.000000 0.999472
vn 0.032493 0.000000 0.999472
vn 0.022525 0.720721 0.692860
vn 0.011895 0.930586 0.365880
vn 0.011895 0.930586 0.365880
vn 0.011895 0.930586 0.365879
vn 0.011895 0.930586 0.365879
vn 0.022525 0.720721 0.692859
vn 0.006049 0.982522 0.186050
vn 0.006048 0.982522 0.186050
vn 0.006048 0.982522 0.186050
vn 0.006048 0.982522 0.186050
vn 0.006049 0.982522 0.186050
vn 0.006048 0.982522 0.186050
vn -0.032493 0.000000 -0.999472
vn -0.032493 0.000000 -0.999472
vn -0.032493 0.000000 -0.999472
vn -0.032493 0.000000 -0.999472
vn -0.032493 0.000000 -0.999472
vn -0.032493 0.000000 -0.999472
vn -0.032493 0.000000 -0.999472
vn -0.032493 0.000000 -0.999472
vn -0.032493 0.000000 -0.999472
vn -0.032493 0.000000 -0.999472
vn -0.032493 0.000000 -0.999472
vn -0.032493 0.000000 -0.999472
vn -0.011895 0.930587 -0.365879
vn -0.022525 0.720723 -0.692857
vn -0.011895 0.930586 -0.365879
vn -0.011895 0.930586 -0.365879
vn -0.011895 0.930586 -0.365879
vn -0.022525 0.720723 -0.692857
vn -0.006048 0.982522 -0.186050
vn -0.006048 0.982522 -0.186049
vn -0.006048 0.982522 -0.186050
vn -0.006048 0.982522 -0.186050
vn -0.006048 0.982522 -0.186050
vn -0.006048 0.982522 -0.186050
vn 0.000000 -1.000000 -0.000000
vn 0.000000 -1.000000 -0.000000
vn 0.000000 -1.000000 -0.000000
vn 0.000000 -1.000000 -0.000000
vn 0.000000 -1.000000 -0.000000
vn 0.000000 -1.000000 -0.000000
vn 0.000000 -1.000000 -0.000000
vn 0.000000 -1.000000 -0.000000
vn 0.000000 -1.000000 -0.000000
vn 0.000000 -1.000000 -0.000000
vn 0.000000 -1.000000 0.000000
vn 0.000000 -1.000000 0.000000
vn 0.000000 -1.000000 -0.000000
vn 0.000000 -1.000000 -0.000000
vn 0.000000 -1.000000 -0.000000
vn 0.000000 -1.000000 -0.000000
vn 0.000000 -1.000000 -0.000000
vn 0.000000 -1.000000 -0.000000
vn 0.000000 -1.000000 -0.000000
vn 0.000000 -1.000000 -0.000000
vn 0.000000 -1.000000 0.000000
vn 0.000000 -1.000000 -0.000000
vn 0.000000 -1.000000 0.000000
vn 0.000000 -1.000000 0.000000
vn 0.000000 -1.000000 -0.000000
vn 0.000000 -1.000000 -0.000000
vn 0.000000 -1.000000 -0.000000
vn 0.000000 -1.000000 -0.000000
vn 0.000000 -1.000000 -0.000000
vn 0.000000 -1.000000 -0.000000
vn 0.000000 -1.000000 -0.000000
vn 0.000000 -1.000000 -0.000000
vn 0.000000 -1.000000 -0.000000
vn 0.000000 -1.000000 -0.000000
vn 0.000000 -1.000000 0.000000
vn 0.000000 -1.000000 0.000000
vn 0.000000 -1.000000 -0.000000
vn 0.000000 -1.000000 -0.000000
vn 0.000000 -1.000000 -0.000000
vn 0.000000 -1.000000 -0.000000
vn 0.000000 -1.000000 -0.000000
vn 0.000000 -1.000000 -0.000000
vn 0.000000 -1.000000 -0.000000
vn 0.000000 -1.000000 -0.000000
vn 0.000000 -1.000000 0.000000
vn 0.000000 -1.000000 0.000000
vn 0.000000 -1.000000 0.000000
vn 0.000000 -1.000000 0.000000
vn 0.000000 -1.000000 0.000000
vn 0.000000 -1.000000 0.000000
vn 0.000000 -1.000000 0.000000
vn 0.000000 -1.000000 0.000000
vn 0.000000 -1.000000 0.000000
vn 0.000000 -1.000000 0.000000
s 1
usemtl initialShadingGroup
f 1/1/1 2/2/2 11/11/3 10/10/4
f 2/2/2 3/3/5 12/12/6 11/11/3
f 3/3/5 4/4/7 13/13/8 12/12/6
f 4/4/7 5/5/9 14/14/10 13/13/8
f 5/5/9 6/6/11 15/15/12 14/14/10
f 6/6/11 7/7/13 16/16/14 15/15/12
f 7/7/13 8/8/15 17/17/16 16/16/14
f 8/8/15 9/9/17 18/18/18 17/17/16
f 10/10/4 11/11/3 20/20/19 19/19/20
f 11/11/3 12/12/6 21/21/21 20/20/19
f 12/12/6 13/13/8 22/22/22 21/21/21
f 13/13/8 14/14/10 23/23/23 22/22/22
f 14/14/10 15/15/12 24/24/24 23/23/23
f 15/15/12 16/16/14 25/25/25 24/24/24
f 16/16/14 17/17/16 26/26/26 25/25/25
f 17/17/16 18/18/18 27/27/27 26/26/26
f 19/19/20 20/20/19 29/29/28 28/28/29
f 20/20/19 21/21/21 30/30/30 29/29/28
f 21/21/21 22/22/22 31/31/31 30/30/30
f 22/22/22 23/23/23 32/32/32 31/31/31
f 23/23/23 24/24/24 33/33/33 32/32/32
f 24/24/24 25/25/25 34/34/34 33/33/33
f 25/25/25 26/26/26 35/35/35 34/34/34
f 26/26/26 27/27/27 36/36/36 35/35/35
s 2
f 28/28/37 29/29/38 38/38/39 37/37/40
f 29/29/38 30/30/41 39/39/42 38/38/39
f 30/30/41 31/31/43 40/40/44 39/39/42
f 31/31/43 32/32/45 41/41/46 40/40/44
f 32/32/45 33/33/47 42/42/48 41/41/46
f 33/33/47 34/34/49 43/43/50 42/42/48
f 34/34/49 35/35/51 44/44/52 43/43/50
f 35/35/51 36/36/53 45/45/54 44/44/52
f 37/37/40 38/38/39 47/47/55 46/46/56
f 38/38/39 39/39/42 48/48/57 47/47/55
f 39/39/42 40/40/44 49/49/58 48/48/57
f 40/40/44 41/41/46 50/50/59 49/49/58
f 41/41/46 42/42/48 51/51/60 50/50/59
f 42/42/48 43/43/50 52/52/61 51/51/60
f 43/43/50 44/44/52 53/53/62 52/52/61
f 44/44/52 45/45/54 54/54/63 53/53/62
f 46/46/56 47/47/55 56/56/64 55/55/65
f 47/47/55 48/48/57 57/57/66 56/56/64
f 48/48/57 49/49/58 58/58/67 57/57/66
f 49/49/58 50/50/59 59/59/68 58/58/67
f 50/50/59 51/51/60 60/60/69 59/59/68
f 51/51/60 52/52/61 61/61/70 60/60/69
f 52/52/61 53/53/62 62/62/71 61/61/70
f 53/53/62 54/54/63 63/63/72 62/62/71
f 55/55/65 56/56/64 65/65/73 64/64/74
f 56/56/64 57/57/66 66/66/75 65/65/73
f 57/57/66 58/58/67 67/67/76 66/66/75
f 58/58/67 59/59/68 68/68/77 67/67/76
f 59/59/68 60/60/69 69/69/78 68/68/77
f 60/60/69 61/61/70 70/70/79 69/69/78
f 61/61/70 62/62/71 71/71/80 70/70/79
f 62/62/71 63/63/72 72/72/81 71/71/80
f 64/64/74 65/65/73 74/74/82 73/73/83
f 65/65/73 66/66/75 75/75/84 74/74/82
f 66/66/75 67/67/76 76/76/85 75/75/84
f 67/67/76 68/68/77 77/77/86 76/76/85
f 68/68/77 69/69/78 78/78/87 77/77/86
f 69/69/78 70/70/79 79/79/88 78/78/87
f 70/70/79 71/71/80 80/80/89 79/79/88
f 71/71/80 72/72/81 81/81/90 80/80/89
s 3
f 73/73/91 74/74/92 83/83/93 82/82/94
f 74/74/92 75/75/95 84/84/96 83/83/93
f 75/75/95 76/76/97 85/85/98 84/84/96
f 76/76/97 77/77/99 86/86/100 85/85/98
f 77/77/99 78/78/101 87/87/102 86/86/100
f 78/78/101 79/79/103 88/88/104 87/87/102
f 79/79/103 80/80/105 89/89/106 88/88/104
f 80/80/105 81/81/107 90/90/108 89/89/106
f 82/82/94 83/83/93 92/92/109 91/91/110
f 83/83/93 84/84/96 93/93/111 92/92/109
f 84/84/96 85/85/98 94/94/112 93/93/111
f 85/85/98 86/86/100 95/95/113 94/94/112
f 86/86/100 87/87/102 96/96/114 95/95/113
f 87/87/102 88/88/104 97/97/115 96/96/114
f 88/88/104 89/89/106 98/98/116 97/97/115
f 89/89/106 90/90/108 99/99/117 98/98/116
f 91/91/110 92/92/109 101/101/118 100/100/119
f 92/92/109 93/93/111 102/102/120 101/101/118
f 93/93/111 94/94/112 103/103/121 102/102/120
f 94/94/112 95/95/113 104/104/122 103/103/121
f 95/95/113 96/96/114 105/105/123 104/104/122
f 96/96/114 97/97/115 106/106/124 105/105/123
f 97/97/115 98/98/116 107/107/125 106/106/124
f 98/98/116 99/99/117 108/108/126 107/107/125
s 4
f 109/110/127 108/109/128 99/114/129 113/115/130
f 110/111/131 109/110/127 113/115/130 114/116/132
f 111/112/133 110/111/131 114/116/132 115/117/134
f 112/113/135 111/112/133 115/117/134 116/118/136
f 9/9/137 112/113/135 116/118/136 18/18/138
f 113/115/130 99/114/129 90/119/139 117/120/140
f 114/116/132 113/115/130 117/120/140 118/121/141
f 115/117/134 114/116/132 118/121/141 119/122/142
f 116/118/136 115/117/134 119/122/142 120/123/143
f 18/18/138 116/118/136 120/123/143 27/27/144
f 117/120/140 90/119/139 81/124/145 72/125/146
f 118/121/141 117/120/140 72/125/146 63/126/147
f 119/122/142 118/121/141 63/126/147 54/127/148
f 120/123/143 119/122/142 54/127/148 45/128/149
f 27/27/144 120/123/143 45/128/149 36/36/150
s 5
f 100/129/151 121/130/152 125/135/153 91/134/154
f 121/130/152 122/131/155 126/136/156 125/135/153
f 122/131/155 123/132/157 127/137/158 126/136/156
f 123/132/157 124/133/159 128/138/160 127/137/158
f 124/133/159 1/1/161 10/10/162 128/138/160
f 91/134/154 125/135/153 129/140/163 82/139/164
f 125/135/153 126/136/156 130/141/165 129/140/163
f 126/136/156 127/137/158 131/142/166 130/141/165
f 127/137/158 128/138/160 132/143/167 131/142/166
f 128/138/160 10/10/162 19/19/168 132/143/167
f 82/139/164 129/140/163 64/145/169 73/144/170
f 129/140/163 130/141/165 55/146/171 64/145/169
f 130/141/165 131/142/166 46/147/172 55/146/171
f 131/142/166 132/143/167 37/148/173 46/147/172
f 132/143/167 19/19/168 28/28/174 37/148/173
s 6
f 133/149/175 146/162/176 122/131/177 121/130/178
f 101/101/179 133/149/175 121/130/178 100/100/180
f 147/163/181 160/176/182 124/133/183 123/132/184
f 146/162/176 147/163/181 123/132/184 122/131/177
f 2/2/185 1/1/186 124/133/183 160/176/182
f 103/103/187 135/151/188 134/150/189 102/102/190
f 135/151/188 144/160/191 145/161/192 134/150/189
f 144/160/191 149/165/193 148/164/194 145/161/192
f 149/165/193 158/174/195 159/175/196 148/164/194
f 3/3/197 159/175/196 158/174/195 4/4/198
f 2/2/185 160/176/182 159/175/196 3/3/197
f 148/164/194 159/175/196 160/176/182 147/163/181
f 145/161/192 148/164/194 147/163/181 146/162/176
f 134/150/189 145/161/192 146/162/176 133/149/175
f 102/102/190 134/150/189 133/149/175 101/101/179
f 105/105/199 137/153/200 136/152/201 104/104/202
f 137/153/200 142/158/203 143/159/204 136/152/201
f 142/158/203 151/167/205 150/166/206 143/159/204
f 151/167/205 156/172/207 157/173/208 150/166/206
f 5/5/209 157/173/208 156/172/207 6/6/210
f 4/4/198 158/174/195 157/173/208 5/5/209
f 150/166/206 157/173/208 158/174/195 149/165/193
f 143/159/204 150/166/206 149/165/193 144/160/191
f 136/152/201 143/159/204 144/160/191 135/151/188
f 104/104/202 136/152/201 135/151/188 103/103/187
f 107/107/211 139/155/212 138/154/213 106/106/214
f 139/155/212 140/156/215 141/157/216 138/154/213
f 140/156/215 153/169/217 152/168/218 141/157/216
f 153/169/217 154/170/219 155/171/220 152/168/218
f 7/7/221 155/171/220 154/170/219 8/8/222
f 6/6/210 156/172/207 155/171/220 7/7/221
f 152/168/218 155/171/220 156/172/207 151/167/205
f 141/157/216 152/168/218 151/167/205 142/158/203
f 138/154/213 141/157/216 142/158/203 137/153/200
f 106/106/214 138/154/213 137/153/200 105/105/199
f 109/110/223 139/155/212 107/107/211 108/109/224
f 110/111/225 140/156/215 139/155/212 109/110/223
f 111/112/226 153/169/217 140/156/215 110/111/225
f 112/113/227 154/170/219 153/169/217 111/112/226
f 8/8/222 154/170/219 112/113/227 9/9/228
